<?xml version="1.0" standalone="no"?>
<!DOCTYPE svg PUBLIC "-//W3C//DTD SVG 20010904//EN"
 "http://www.w3.org/TR/2001/REC-SVG-20010904/DTD/svg10.dtd">
<svg version="1.0" xmlns="http://www.w3.org/2000/svg"
 width="700.000000pt" height="700.000000pt" viewBox="0 0 700.000000 700.000000"
 preserveAspectRatio="xMidYMid meet">
<metadata>
Created by potrace 1.11, written by Peter Selinger 2001-2013
</metadata>
<g transform="translate(0.000000,700.000000) scale(0.100000,-0.100000)"
fill="#000000" stroke="none">
<path d="M6011 6989 c-109 -19 -254 -115 -313 -209 -15 -24 -16 -20 -16 73 1
54 -3 101 -7 105 -3 4 -56 7 -116 8 l-109 0 0 -976 0 -977 109 1 c60 1 113 4
116 8 4 4 7 171 7 372 l0 364 36 -46 c101 -135 228 -195 412 -195 235 0 412
125 512 360 l27 61 0 318 c0 290 -2 321 -20 369 -60 161 -206 306 -354 351
-61 19 -210 25 -284 13z m179 -200 c90 -28 165 -99 216 -204 46 -96 63 -186
62 -334 -1 -194 -43 -332 -128 -425 -75 -82 -151 -114 -266 -114 -243 0 -385
194 -388 528 -1 147 5 193 34 281 51 151 144 244 275 274 56 13 142 10 195 -6z"/>
<path d="M4550 5618 c-68 -10 -161 -56 -219 -107 -93 -83 -160 -222 -162 -336
l-2 -53 -61 25 c-140 57 -281 33 -389 -66 -70 -63 -141 -210 -151 -312 -2 -24
-5 -46 -5 -48 -1 -3 -15 15 -33 40 -17 24 -42 59 -55 77 l-25 33 -66 -47 c-37
-26 -71 -50 -75 -54 -5 -4 11 -35 35 -68 23 -34 189 -270 368 -525 l324 -465
73 51 c40 28 73 54 73 58 0 4 -65 100 -145 214 -80 114 -145 211 -145 215 0 5
-4 10 -8 12 -5 2 -45 57 -90 123 -92 135 -111 188 -107 300 5 131 61 229 163
283 64 34 98 38 168 21 69 -18 125 -79 281 -304 75 -110 141 -204 146 -210 4
-5 55 -77 113 -160 58 -82 110 -150 117 -149 7 1 42 22 80 48 l67 48 -77 111
c-43 62 -147 211 -232 332 -85 121 -164 243 -177 270 -57 123 -20 308 78 390
56 48 134 78 186 72 66 -7 94 -20 139 -64 32 -30 285 -384 522 -729 l35 -51
73 50 c40 28 73 55 73 60 0 5 -27 48 -61 96 -33 47 -155 221 -270 385 -115
165 -225 317 -245 337 -77 79 -194 115 -314 97z"/>
<path d="M6779 5587 c-14 -12 -64 -49 -110 -83 -46 -34 -199 -145 -339 -248
-140 -103 -264 -194 -275 -202 -11 -8 -69 -51 -130 -95 -133 -98 -178 -131
-655 -481 -206 -151 -548 -401 -759 -556 -211 -154 -395 -290 -410 -300 -39
-30 -481 -354 -520 -382 -19 -14 -42 -30 -50 -37 -9 -7 -170 -125 -358 -263
-318 -232 -354 -256 -505 -329 -261 -126 -392 -168 -628 -197 -98 -13 -331 -7
-429 11 -477 84 -873 424 -1026 879 -13 39 -26 82 -29 96 -27 133 -32 180 -30
290 1 69 4 145 8 170 11 81 48 214 79 290 174 423 528 723 952 806 122 24 378
24 490 -1 44 -9 87 -18 96 -20 112 -23 285 -100 403 -178 77 -52 230 -191 277
-252 98 -130 177 -301 195 -422 3 -27 8 -57 10 -68 6 -29 5 -193 -1 -240 -16
-121 -72 -292 -132 -395 -92 -161 -233 -274 -341 -274 -92 0 -107 33 -84 184
12 76 160 732 248 1098 19 79 34 147 34 151 0 5 -90 9 -201 9 -232 0 -201 18
-240 -140 -13 -54 -27 -98 -30 -98 -4 0 -18 18 -33 40 -76 115 -223 212 -372
246 -99 22 -286 15 -389 -15 -67 -19 -177 -66 -220 -93 -182 -118 -331 -288
-419 -479 -43 -93 -90 -251 -106 -354 -23 -152 -12 -348 26 -463 104 -315 356
-513 649 -513 70 1 84 2 181 22 85 17 278 126 335 190 29 33 40 26 55 -31 27
-103 102 -162 225 -177 112 -14 305 30 458 103 79 38 203 112 245 144 55 44
159 136 193 171 145 153 261 392 310 638 24 121 24 405 0 520 -132 627 -731
1083 -1507 1148 -350 29 -660 -25 -942 -164 -97 -47 -235 -127 -248 -143 -3
-4 -25 -20 -50 -37 -67 -46 -200 -173 -273 -261 -212 -254 -359 -592 -395
-907 -16 -139 -6 -424 19 -532 6 -26 13 -59 15 -73 25 -131 162 -437 256 -571
160 -229 374 -418 607 -537 219 -112 360 -152 606 -169 173 -13 494 -6 620 12
17 2 50 7 75 10 25 3 54 7 65 9 11 2 36 6 55 10 109 19 167 33 255 58 121 35
297 109 370 155 142 92 463 347 820 653 55 47 110 94 124 105 13 11 29 25 35
30 6 6 74 64 151 130 77 66 142 122 145 125 3 3 36 32 75 65 38 33 83 72 100
87 16 14 39 35 51 45 54 46 148 129 158 138 6 6 65 57 131 115 65 58 126 112
135 120 9 8 45 40 80 70 35 30 68 60 74 65 6 6 70 62 141 125 72 63 135 119
141 125 19 17 156 139 177 157 28 25 163 145 227 203 31 28 93 84 139 125 94
84 88 78 156 140 28 25 88 79 134 120 46 41 89 80 95 85 6 6 52 46 101 90 50
44 92 83 95 86 3 3 32 29 65 59 54 48 137 122 265 239 47 42 54 57 9 18z
m-4858 -1503 c64 -29 135 -96 167 -161 74 -145 32 -368 -103 -543 -108 -139
-247 -210 -405 -205 -94 2 -153 27 -214 90 -111 113 -139 290 -74 463 70 188
240 350 398 381 73 14 166 4 231 -25z"/>
<path d="M6465 4938 c-27 -22 -60 -48 -73 -58 l-23 -18 116 -344 c273 -807
246 -719 216 -703 -14 8 -83 52 -152 98 -69 45 -227 147 -350 227 -123 80
-266 173 -318 207 l-94 62 -79 -61 c-43 -33 -78 -62 -78 -63 0 -2 42 -28 93
-59 50 -31 304 -190 562 -352 259 -162 477 -299 486 -304 11 -6 36 8 95 53
l81 62 -48 145 c-150 459 -295 907 -321 990 -16 52 -34 103 -39 112 -5 10 -9
25 -9 33 0 22 -10 18 -65 -27z"/>
<path d="M5418 3984 c-2 -1 -23 -5 -48 -9 -25 -3 -83 -25 -130 -48 -102 -50
-210 -151 -252 -237 -154 -314 -1 -710 352 -907 136 -77 326 -99 459 -54 284
97 448 415 349 680 l-24 62 -67 -52 c-37 -28 -67 -55 -67 -60 0 -4 5 -20 11
-36 15 -38 14 -141 -1 -189 -32 -101 -138 -211 -229 -238 -141 -42 -314 8
-446 129 l-60 55 30 22 c16 13 61 48 100 79 38 30 193 151 343 268 l272 213
-39 46 c-127 149 -211 210 -346 251 -58 18 -198 35 -207 25z m142 -188 c29 -9
68 -26 88 -38 49 -30 112 -87 112 -102 0 -6 -15 -21 -33 -33 -18 -13 -42 -31
-53 -40 -10 -10 -54 -45 -97 -78 -43 -33 -107 -82 -142 -110 -262 -205 -254
-200 -270 -179 -39 51 -59 128 -59 229 -1 90 2 106 27 157 78 159 263 243 427
194z"/>
<path d="M4331 3154 c-128 -22 -263 -102 -343 -204 -207 -263 -128 -667 178
-910 141 -112 274 -159 436 -154 143 4 248 50 356 156 152 148 203 362 132
552 l-22 58 -22 -19 c-11 -11 -42 -36 -68 -56 l-47 -37 13 -38 c22 -63 14
-170 -17 -234 -31 -62 -87 -125 -144 -161 -114 -72 -259 -65 -412 20 -65 36
-155 116 -149 133 2 5 102 86 223 181 121 94 234 181 250 194 17 13 77 61 135
106 58 45 109 85 114 90 18 16 -119 167 -205 226 -80 55 -177 91 -269 100 -25
2 -49 5 -55 7 -5 2 -43 -3 -84 -10z m144 -175 c28 -6 72 -23 98 -36 54 -27
140 -101 132 -113 -5 -8 -78 -66 -452 -357 l-133 -103 -23 48 c-35 69 -47 113
-51 182 -10 180 100 330 273 375 65 16 100 17 156 4z"/>
<path d="M2918 2050 l-47 -38 22 -29 c27 -34 39 -50 52 -66 6 -7 39 -50 75
-97 35 -47 68 -89 73 -95 4 -5 60 -77 123 -160 63 -82 120 -157 127 -165 7 -8
35 -44 62 -80 28 -36 52 -67 55 -70 3 -3 39 -49 80 -103 41 -55 80 -106 87
-114 10 -12 49 15 255 173 134 103 269 208 301 232 l58 44 -17 27 c-9 14 -26
36 -37 48 l-19 22 -122 -92 c-66 -51 -123 -94 -126 -97 -15 -17 -251 -192
-254 -189 -1 2 -27 36 -57 75 -57 74 -177 231 -269 349 -30 39 -92 120 -139
180 -152 197 -223 285 -229 284 -4 0 -28 -18 -54 -39z"/>
</g>
</svg>
