<?xml version="1.0" standalone="no"?>
<!DOCTYPE svg PUBLIC "-//W3C//DTD SVG 20010904//EN"
 "http://www.w3.org/TR/2001/REC-SVG-20010904/DTD/svg10.dtd">
<svg version="1.0" xmlns="http://www.w3.org/2000/svg"
 width="700.000000pt" height="700.000000pt" viewBox="0 0 700.000000 700.000000"
 preserveAspectRatio="xMidYMid meet">
<metadata>
Created by potrace 1.11, written by Peter Selinger 2001-2013
</metadata>
<g transform="translate(0.000000,700.000000) scale(0.100000,-0.100000)"
fill="#000000" stroke="none">
<path d="M3310 6883 c-36 -2 -128 -10 -205 -19 -757 -84 -1414 -404 -1970
-959 -563 -561 -873 -1190 -971 -1970 -22 -173 -25 -633 -6 -800 91 -777 386
-1404 926 -1963 423 -437 915 -742 1449 -897 168 -49 274 -72 467 -102 206
-31 600 -42 821 -24 618 53 1169 256 1652 609 466 341 873 824 1105 1310 209
441 312 917 312 1447 0 649 -156 1219 -480 1750 -219 361 -590 755 -955 1017
-285 204 -646 381 -960 471 -371 106 -772 150 -1185 130z m-684 -1386 c4 -4
984 -3706 984 -3717 0 -7 -132 -10 -390 -10 l-389 0 -10 38 c-5 20 -44 198
-87 395 l-78 357 -495 -2 -495 -3 -37 -165 c-19 -91 -58 -267 -84 -392 l-49
-228 -393 0 c-227 0 -393 4 -393 9 0 5 108 416 240 913 324 1220 486 1831 620
2343 62 237 117 441 122 454 l9 24 461 -7 c254 -3 463 -8 464 -9z m3562 -306
l2 -314 -670 7 -670 7 0 -440 0 -441 630 0 630 0 0 -310 0 -310 -630 0 -630 0
0 -500 0 -500 695 0 695 0 0 -310 0 -310 -1070 0 -1070 0 0 1865 0 1865 323 3
c177 1 646 2 1042 2 l720 0 3 -314z"/>
<path d="M2158 4845 c-10 -17 -362 -1655 -356 -1660 3 -3 167 -4 364 -3 l359
3 -172 795 c-95 437 -176 813 -180 835 -5 22 -11 36 -15 30z"/>
</g>
</svg>
