<?xml version="1.0" standalone="no"?>
<!DOCTYPE svg PUBLIC "-//W3C//DTD SVG 20010904//EN"
 "http://www.w3.org/TR/2001/REC-SVG-20010904/DTD/svg10.dtd">
<svg version="1.0" xmlns="http://www.w3.org/2000/svg"
 width="700.000000pt" height="700.000000pt" viewBox="0 0 700.000000 700.000000"
 preserveAspectRatio="xMidYMid meet">
<metadata>
Created by potrace 1.11, written by Peter Selinger 2001-2013
</metadata>
<g transform="translate(0.000000,700.000000) scale(0.100000,-0.100000)"
fill="#000000" stroke="none">
<path d="M3255 6884 c-700 -54 -1302 -290 -1840 -720 -143 -114 -437 -409
-549 -549 -428 -536 -657 -1113 -717 -1805 -15 -173 -6 -593 16 -755 21 -161
69 -392 106 -516 146 -494 426 -972 780 -1336 400 -410 758 -657 1219 -841
755 -302 1718 -304 2479 -6 383 150 723 367 1041 662 657 611 1010 1311 1090
2162 16 169 13 540 -5 713 -69 656 -303 1217 -724 1737 -112 138 -398 424
-536 534 -342 273 -742 483 -1135 597 -134 38 -360 84 -520 104 -119 16 -586
28 -705 19z m-174 -3139 c328 -858 328 -860 329 -937 l0 -78 -102 0 -103 0
-84 240 -85 240 -426 0 -427 0 -84 -237 -84 -238 -133 -3 c-83 -2 -133 1 -130
7 1 5 163 429 358 941 l355 930 144 -2 144 -3 328 -860z m2019 760 l0 -105
-470 0 -470 0 0 -280 0 -280 450 0 450 0 0 -105 0 -105 -447 -2 -448 -3 -3
-342 -2 -343 480 0 480 0 0 -105 0 -105 -605 0 -605 0 0 940 0 940 595 0 595
0 0 -105z"/>
<path d="M2592 4323 c-5 -16 -67 -183 -137 -373 -70 -190 -142 -387 -161 -437
l-34 -93 346 0 346 0 -5 22 c-14 53 -333 908 -339 908 -3 0 -10 -12 -16 -27z"/>
</g>
</svg>
