<?xml version="1.0" standalone="no"?>
<!DOCTYPE svg PUBLIC "-//W3C//DTD SVG 20010904//EN"
 "http://www.w3.org/TR/2001/REC-SVG-20010904/DTD/svg10.dtd">
<svg version="1.0" xmlns="http://www.w3.org/2000/svg"
 width="700.000000pt" height="700.000000pt" viewBox="0 0 700.000000 700.000000"
 preserveAspectRatio="xMidYMid meet">
<metadata>
Created by potrace 1.11, written by Peter Selinger 2001-2013
</metadata>
<g transform="translate(0.000000,700.000000) scale(0.100000,-0.100000)"
fill="#000000" stroke="none">
<path d="M3310 6883 c-36 -2 -128 -10 -205 -19 -757 -84 -1414 -404 -1970
-959 -563 -561 -873 -1190 -971 -1970 -22 -173 -25 -633 -6 -800 91 -777 386
-1404 926 -1963 423 -437 915 -742 1449 -897 168 -49 274 -72 467 -102 206
-31 600 -42 821 -24 618 53 1169 256 1652 609 466 341 873 824 1105 1310 209
441 312 917 312 1447 0 649 -156 1219 -480 1750 -219 361 -590 755 -955 1017
-285 204 -646 381 -960 471 -371 106 -772 150 -1185 130z m-14 -3253 c134
-503 243 -918 244 -922 0 -5 -87 -8 -193 -8 l-194 0 -27 128 c-16 70 -35 157
-43 195 l-15 67 -246 -2 -246 -3 -36 -165 c-20 -91 -40 -178 -44 -193 l-6 -27
-190 0 c-142 0 -190 3 -190 12 0 7 108 420 240 919 132 499 240 910 240 913 0
4 104 5 232 4 l232 -3 242 -915z m1519 765 l0 -150 -332 -3 -333 -2 0 -215 0
-215 310 0 310 0 0 -155 0 -155 -310 0 -310 0 0 -245 0 -245 345 0 345 0 0
-155 0 -155 -530 0 -530 0 0 925 0 925 518 -2 517 -3 0 -150z"/>
<path d="M2817 4205 c-3 -11 -43 -189 -87 -395 -44 -206 -83 -383 -86 -392 -5
-17 8 -18 175 -18 100 0 181 3 181 6 0 8 -169 793 -174 809 -1 6 -6 1 -9 -10z"/>
</g>
</svg>
