<?xml version="1.0" standalone="no"?>
<!DOCTYPE svg PUBLIC "-//W3C//DTD SVG 20010904//EN"
 "http://www.w3.org/TR/2001/REC-SVG-20010904/DTD/svg10.dtd">
<svg version="1.0" xmlns="http://www.w3.org/2000/svg"
 width="700.000000pt" height="700.000000pt" viewBox="0 0 700.000000 700.000000"
 preserveAspectRatio="xMidYMid meet">
<metadata>
Created by potrace 1.11, written by Peter Selinger 2001-2013
</metadata>
<g transform="translate(0.000000,700.000000) scale(0.100000,-0.100000)"
fill="#000000" stroke="none">
<path d="M1859 6150 c-188 -39 -336 -103 -502 -220 -109 -77 -309 -273 -392
-385 -71 -95 -125 -173 -125 -179 0 -3 -13 -25 -29 -49 -42 -61 -141 -262
-194 -392 -92 -224 -192 -577 -221 -780 -4 -23 -8 -50 -10 -61 -2 -11 -7 -47
-11 -79 -4 -33 -9 -68 -11 -78 -1 -9 -6 -56 -10 -105 -3 -48 -8 -107 -10 -132
-5 -67 -5 -417 0 -480 3 -30 8 -91 11 -135 17 -230 56 -445 126 -702 123 -448
291 -784 565 -1130 97 -122 267 -293 359 -361 91 -68 240 -130 390 -164 135
-30 443 -34 580 -8 111 21 246 60 294 84 17 9 31 14 31 12 0 -8 201 98 266
140 60 39 158 109 181 129 6 5 45 39 87 75 121 105 593 585 962 979 107 114
112 120 224 241 58 63 116 126 130 140 21 23 156 169 231 251 13 15 65 71 115
125 50 55 140 153 200 219 60 66 118 129 129 141 11 11 56 60 100 109 44 49
105 115 135 148 30 32 62 67 71 78 14 16 115 128 194 215 11 12 54 59 95 105
41 46 98 108 125 139 28 30 64 70 80 89 17 18 41 45 55 60 14 14 54 60 90 100
36 41 72 81 80 90 9 9 52 57 95 106 44 50 82 92 85 95 3 3 28 30 55 60 28 31
88 98 135 149 97 106 131 152 79 105 -52 -47 -390 -337 -509 -436 -14 -12 -54
-47 -90 -78 -36 -31 -76 -65 -89 -76 -13 -10 -28 -24 -35 -29 -6 -6 -42 -37
-81 -70 -38 -33 -72 -62 -75 -65 -3 -3 -32 -28 -65 -55 -33 -28 -62 -52 -65
-55 -3 -3 -81 -70 -175 -150 -93 -80 -172 -147 -175 -150 -5 -5 -439 -377
-770 -659 -74 -63 -148 -127 -165 -142 -16 -15 -84 -73 -150 -129 -66 -56
-131 -112 -145 -123 -14 -12 -61 -53 -105 -90 -44 -38 -102 -88 -130 -112 -27
-23 -90 -77 -140 -120 -49 -43 -101 -87 -115 -99 -80 -67 -156 -132 -166 -141
-6 -5 -32 -28 -59 -50 -26 -22 -55 -47 -64 -55 -9 -9 -45 -40 -81 -70 -36 -30
-74 -63 -85 -74 -86 -79 -257 -207 -367 -273 -152 -93 -312 -151 -463 -169
-139 -17 -370 2 -434 36 -9 5 -42 18 -73 30 -32 12 -78 35 -103 51 -25 16 -50
29 -55 29 -4 0 -10 4 -12 8 -1 5 -23 22 -48 39 -63 43 -208 185 -267 263 -187
243 -317 530 -406 895 -14 55 -28 118 -31 140 -3 22 -8 52 -11 67 -29 150 -40
532 -23 738 47 547 277 1115 579 1427 162 168 308 259 499 309 101 27 300 24
414 -5 50 -13 97 -27 105 -31 9 -5 50 -24 91 -43 379 -175 705 -673 790 -1209
21 -138 25 -188 25 -373 0 -260 -9 -346 -60 -582 -3 -13 -7 -33 -10 -45 -16
-76 -84 -267 -122 -348 -112 -233 -245 -347 -337 -286 -48 31 -51 89 -20 381
3 28 19 138 34 245 16 107 32 215 35 240 3 25 7 56 10 70 3 14 7 45 10 70 3
25 10 70 15 100 5 30 12 78 15 105 3 28 8 59 10 71 3 11 11 68 19 125 8 57 17
120 20 139 29 190 46 305 51 355 4 33 9 62 10 65 2 3 11 59 20 125 9 66 18
132 21 148 l4 27 -203 0 -203 0 -19 -112 c-11 -62 -20 -117 -20 -123 -3 -36
-18 -131 -22 -137 -2 -5 -25 34 -50 85 -129 260 -290 381 -508 382 -114 0
-155 -7 -236 -41 -194 -83 -359 -261 -502 -542 -168 -329 -261 -761 -261
-1212 0 -115 9 -278 19 -335 3 -16 10 -55 15 -85 22 -125 90 -329 148 -445 76
-152 196 -282 317 -341 78 -38 81 -39 190 -39 121 1 179 17 267 75 80 53 206
186 252 266 23 39 35 43 38 12 16 -211 108 -340 252 -355 38 -4 80 1 142 17
77 19 188 63 204 80 3 3 34 25 70 49 274 189 513 528 640 910 40 123 101 368
114 466 15 104 17 121 21 142 24 150 25 626 0 813 -2 19 -7 55 -10 80 -8 58
-43 233 -57 285 -6 22 -12 45 -13 50 -10 45 -83 243 -124 336 -262 584 -712
972 -1236 1064 -141 25 -356 27 -466 5z m376 -2064 c104 -61 192 -219 220
-393 8 -54 8 -212 0 -278 -13 -99 -46 -246 -71 -315 -42 -118 -114 -261 -135
-268 -5 -2 -9 -8 -9 -14 0 -18 -104 -119 -150 -146 -92 -54 -211 -57 -290 -7
-94 59 -176 230 -197 411 -38 322 70 703 257 908 68 75 108 104 180 127 46 15
148 2 195 -25z"/>
</g>
</svg>
