<?xml version="1.0" standalone="no"?>
<!DOCTYPE svg PUBLIC "-//W3C//DTD SVG 20010904//EN"
 "http://www.w3.org/TR/2001/REC-SVG-20010904/DTD/svg10.dtd">
<svg version="1.0" xmlns="http://www.w3.org/2000/svg"
 width="700.000000pt" height="700.000000pt" viewBox="0 0 700.000000 700.000000"
 preserveAspectRatio="xMidYMid meet">
<metadata>
Created by potrace 1.14, written by Peter Selinger 2001-2017
</metadata>
<g transform="translate(0.000000,700.000000) scale(0.100000,-0.100000)"
fill="#000000" stroke="none">
<path d="M3557 6714 c-1 -1 -58 -4 -127 -8 -69 -3 -136 -8 -150 -10 -14 -2
-52 -7 -85 -11 -32 -4 -66 -8 -75 -10 -8 -1 -37 -6 -63 -9 -61 -9 -57 -8 -202
-41 -186 -42 -471 -134 -620 -200 -16 -8 -52 -23 -80 -36 -105 -46 -305 -149
-415 -214 -377 -223 -696 -498 -952 -820 -55 -70 -208 -288 -208 -298 0 -3
-18 -34 -39 -69 -107 -177 -229 -464 -301 -707 -12 -41 -23 -81 -25 -90 -2 -9
-8 -36 -15 -61 -7 -25 -14 -54 -16 -65 -15 -76 -35 -188 -40 -230 -3 -27 -8
-53 -11 -57 -7 -13 39 -52 122 -101 44 -27 87 -52 95 -57 277 -169 693 -345
983 -416 36 -9 63 -14 92 -19 17 -3 37 -8 45 -10 144 -41 525 -62 748 -41 45
4 82 5 82 2 0 -8 -171 -106 -310 -179 -108 -56 -184 -92 -375 -177 -99 -44
-295 -117 -470 -175 -167 -56 -555 -168 -618 -178 -12 -2 -50 -10 -85 -17 -73
-16 -73 -11 -4 -140 283 -533 699 -942 1231 -1210 145 -73 259 -121 426 -177
112 -38 280 -87 339 -99 11 -2 63 -12 115 -23 100 -21 191 -36 276 -47 28 -3
61 -7 75 -9 160 -23 628 -23 760 0 14 2 45 6 70 9 272 30 653 137 958 267 225
96 665 338 678 373 4 10 -161 549 -210 691 -8 22 -33 101 -57 175 -23 74 -44
142 -47 150 -2 8 17 -10 44 -40 225 -252 439 -365 679 -356 123 5 227 33 345
95 26 14 61 57 130 160 52 77 106 162 120 188 14 27 38 73 55 103 128 231 271
643 316 909 57 341 58 582 3 921 -35 218 -133 499 -259 745 -216 418 -507 757
-875 1019 -189 135 -411 254 -640 344 -272 107 -638 199 -910 228 -25 2 -58 7
-75 9 -43 6 -423 23 -428 19z m318 -261 c13 -114 27 -230 31 -258 3 -27 7 -61
9 -75 1 -14 5 -38 8 -55 3 -16 9 -52 12 -80 6 -49 60 -400 70 -460 3 -16 14
-77 25 -135 11 -58 21 -116 24 -130 2 -14 11 -59 20 -100 8 -41 18 -90 21
-109 3 -19 7 -37 9 -40 2 -3 7 -22 10 -41 3 -19 15 -75 27 -125 11 -49 23
-101 26 -115 9 -54 85 -346 133 -516 120 -423 264 -825 425 -1189 61 -137 212
-442 254 -514 18 -29 30 -56 27 -58 -2 -3 -9 4 -15 15 -6 11 -17 26 -24 34 -7
7 -32 38 -55 68 -101 128 -261 288 -398 399 -72 58 -267 179 -359 222 -149 70
-348 133 -485 153 -184 27 -469 27 -620 1 -14 -2 -41 -6 -60 -9 -31 -5 -93
-16 -157 -30 -62 -13 -200 -50 -214 -57 -9 -4 -27 -10 -40 -13 -23 -4 -205
-68 -231 -81 -7 -3 -2 2 12 12 197 143 283 216 403 340 91 94 107 113 202 238
260 341 478 810 622 1335 18 69 36 135 38 146 3 12 18 77 34 145 29 120 34
144 46 219 3 19 10 58 16 85 16 83 17 91 23 131 3 22 8 50 11 64 2 14 6 41 9
60 2 19 9 69 15 110 5 41 13 98 16 125 3 28 8 64 10 80 5 33 11 92 21 205 3
41 8 86 9 100 2 14 4 47 4 74 2 91 12 39 36 -171z"/>
</g>
</svg>
