<svg width="58" height="58" viewBox="0 0 58 58" fill="none" xmlns="http://www.w3.org/2000/svg">
<path fill-rule="evenodd" clip-rule="evenodd" d="M28.5714 57.1429C44.351 57.1429 57.1429 44.351 57.1429 28.5714C57.1429 12.7919 44.351 0 28.5714 0C12.7919 0 0 12.7919 0 28.5714C0 44.351 12.7919 57.1429 28.5714 57.1429Z" fill="#EC342E"/>
<path fill-rule="evenodd" clip-rule="evenodd" d="M36.3349 31.5812C36.1946 31.2074 31.5212 18.7541 31.3206 18.2233C30.8479 16.9679 30.2822 15.7139 28.4828 15.7139C26.6842 15.7139 26.0981 16.9881 25.6428 18.2233C25.5281 18.5334 24.3797 21.5933 23.2108 24.7076C21.9773 27.9942 20.721 31.3414 20.6329 31.5812C20.583 31.7115 20.6471 31.8664 20.787 31.9176C20.8191 31.9297 20.9653 31.9849 21.1747 32.0639C21.9046 32.3392 23.4024 32.9043 23.5133 32.9472C23.6552 33.0019 23.8006 32.9181 23.8471 32.794C23.8699 32.7337 24.1297 32.0357 24.4048 31.2962C24.6988 30.5061 25.0104 29.6688 25.0692 29.5118H32.0534C32.1202 29.69 32.4583 30.7439 32.7366 31.611C32.9327 32.2221 33.099 32.7405 33.1195 32.794C33.1689 32.9233 33.3201 32.9962 33.4545 32.9472C33.5285 32.92 34.3046 32.6268 35.0115 32.3597C35.5829 32.1439 36.1091 31.9451 36.183 31.9176C36.348 31.8565 36.3738 31.6842 36.3349 31.5812ZM20 41.1896V38.531C20 38.3987 20.1184 38.2922 20.265 38.2922H36.8797C37.0253 38.2922 37.1429 38.3987 37.1429 38.531V41.1896C37.1429 41.3221 37.0253 41.4281 36.8797 41.4281H20.265C20.1184 41.4281 20 41.3221 20 41.1896ZM26.1274 26.6217H30.8479L28.4982 19.7807H28.469L26.1274 26.6217Z" fill="white"/>
</svg>
