<?xml version="1.0" encoding="UTF-8" standalone="no" ?>
<!DOCTYPE svg PUBLIC "-//W3C//DTD SVG 1.1//EN" "http://www.w3.org/Graphics/SVG/1.1/DTD/svg11.dtd">
<svg xmlns="http://www.w3.org/2000/svg" xmlns:xlink="http://www.w3.org/1999/xlink" version="1.1" width="500" height="150" viewBox="0 53.55 500 150" xml:space="preserve">
<desc>Created with Fabric.js 5.2.4</desc>
<defs>
</defs>
<g transform="matrix(Infinity NaN NaN Infinity 0 0)" id="11c3a8ee-d223-47c8-885a-e7e0231d6183"  >
</g>
<g transform="matrix(1 0 0 1 250 75)" id="cdbf9fdd-88a8-4aaa-95c2-9743302fd274"  >
<rect style="stroke: none; stroke-width: 1; stroke-dasharray: none; stroke-linecap: butt; stroke-dashoffset: 0; stroke-linejoin: miter; stroke-miterlimit: 4; fill: rgb(255,255,255); fill-rule: nonzero; opacity: 1; visibility: hidden;" vector-effect="non-scaling-stroke"  x="-250" y="-75" rx="0" ry="0" width="500" height="150" />
</g>
<g transform="matrix(0.14 0 0 0.14 250 126.89)"  >
<g style="" vector-effect="non-scaling-stroke"   >
		<g transform="matrix(1 0 0 1 -198.09 0.03)"  >
<path style="stroke: none; stroke-width: 1; stroke-dasharray: none; stroke-linecap: butt; stroke-dashoffset: 0; stroke-linejoin: miter; stroke-miterlimit: 4; fill: rgb(255,255,255); fill-rule: evenodd; opacity: 1;" vector-effect="non-scaling-stroke"  transform=" translate(-99.32, -421.68)" d="M 151.425 421.68 C 151.425 450.46000000000004 128.08100000000002 473.815 99.322 473.815 C 70.561 473.815 47.217000000000006 450.46 47.217000000000006 421.68 C 47.217000000000006 392.901 70.561 369.549 99.322 369.549 C 128.081 369.549 151.425 392.901 151.425 421.68" stroke-linecap="round" />
</g>
		<g transform="matrix(1 0 0 1 -198.12 0)"  >
<path style="stroke: none; stroke-width: 1; stroke-dasharray: none; stroke-linecap: butt; stroke-dashoffset: 0; stroke-linejoin: miter; stroke-miterlimit: 4; fill: rgb(30,50,98); fill-rule: evenodd; opacity: 1;" vector-effect="non-scaling-stroke"  transform=" translate(-99.29, -421.65)" d="M 48.089 421.68 C 48.089 393.408 71.06 370.416 99.322 370.416 C 127.521 370.416 150.49200000000002 393.407 150.49200000000002 421.68 C 150.49200000000002 449.896 127.52100000000002 472.875 99.32200000000002 472.875 C 71.06 472.875 48.089 449.896 48.089 421.68 M 46.279 421.68 C 46.279 450.89300000000003 70.063 474.682 99.322 474.682 C 128.512 474.682 152.292 450.89300000000003 152.292 421.68 C 152.292 392.402 128.513 368.617 99.322 368.617 C 70.063 368.617 46.279 392.402 46.279 421.68" stroke-linecap="round" />
</g>
		<g transform="matrix(1 0 0 1 -198.07 0.07)"  >
<path style="stroke: none; stroke-width: 1; stroke-dasharray: none; stroke-linecap: butt; stroke-dashoffset: 0; stroke-linejoin: miter; stroke-miterlimit: 4; fill: rgb(30,50,98); fill-rule: evenodd; opacity: 1;" vector-effect="non-scaling-stroke"  transform=" translate(-99.33, -421.72)" d="M 133.063 416.261 C 132.62699999999998 416.634 132.19199999999998 416.942 131.76 417.32300000000004 C 128.82899999999998 419.55600000000004 124.15899999999999 421.36800000000005 117.75099999999999 423.05500000000006 C 104.43199999999999 426.6620000000001 94.77199999999999 427.1530000000001 83.81299999999999 429.84400000000005 C 81.63799999999999 430.40000000000003 79.39699999999999 431.08400000000006 77.34799999999998 431.9560000000001 C 79.39699999999999 433.0180000000001 81.63799999999999 433.9500000000001 83.87999999999998 434.8250000000001 C 88.35899999999998 433.5200000000001 90.48499999999999 432.9570000000001 96.94999999999999 431.8980000000001 C 99.44099999999999 431.4530000000001 107.03699999999999 430.08600000000007 112.51499999999999 428.97600000000006 C 122.42 426.849 136.924 422.239 133.063 416.261 M 126.654 403.801 C 124.52799999999999 402.872 121.914 401.93199999999996 119.121 401.191 C 117.866 402.188 116.44399999999999 403.05499999999995 114.317 403.87399999999997 C 117.81299999999999 404.486 120.428 405.48299999999995 123.407 406.29799999999994 C 123.906 406.549 126.271 404.376 126.654 403.801 M 78.153 417.071 C 91.10400000000001 413.269 104.677 412.09000000000003 118.436 408.41700000000003 C 113.08200000000001 406.98600000000005 110.084 406.358 104.432 407.047 C 96.209 408.04400000000004 87.119 409.77900000000005 79.34100000000001 412.089 C 76.284 413.026 60.28800000000001 417.569 64.90100000000001 423.921 C 64.9 423.986 67.63 420.128 78.153 417.071 M 69.25 438.867 C 69.187 440.055 69.939 441.112 71.496 442.422 C 71.679 441.793 71.99499999999999 441.303 72.431 440.67900000000003 C 71.368 440.111 70.308 439.556 69.25 438.867 M 75.293 438.315 C 76.284 437.687 77.46300000000001 437.124 78.771 436.628 C 76.969 435.81399999999996 75.04 435.015 73.171 434.14 C 72.299 434.7 71.495 435.259 70.873 435.81399999999996 C 72.363 436.69 73.8 437.497 75.293 438.315 M 125.027 410.785 C 122.421 412.03000000000003 118.686 413.27000000000004 113.331 414.583 C 108.911 415.701 98.202 417.25800000000004 86.688 419.747 C 83.07600000000001 420.558 73.172 422.85900000000004 68.316 426.97 C 69.686 428.101 70.557 428.34400000000005 72.051 429.216 C 74.043 427.906 76.783 426.66200000000003 80.83500000000001 425.596 C 87.861 423.736 93.159 422.92900000000003 99.513 421.875 C 105.798 420.926 117.684 418.441 124.22200000000001 416.07 C 126.405 415.328 128.393 414.331 129.822 413.139 C 129.384 412.649 125.152 410.594 125.027 410.785 M 128.829 408.474 C 130.132 409.099 131.324 409.536 132.44 410.347 C 133.245 408.786 132.746 407.789 131.07399999999998 406.359 C 130.386 407.173 129.634 407.854 128.829 408.474 M 68.631 431.83 C 67.443 431.214 66.698 430.715 65.7 430.087 C 65.20100000000001 431.214 66.20700000000001 432.45 67.19800000000001 433.018 C 67.63 432.58 68.196 432.207 68.631 431.83 M 123.657 396.087 C 123.407 396.959 122.484 398.017 121.85499999999999 398.706 C 123.78699999999999 399.20500000000004 125.779 399.942 127.642 400.63100000000003 C 127.396 398.888 125.404 397.206 123.657 396.087 M 62.774 407.1 C 76.34700000000001 398.26000000000005 91.35300000000001 393.031 116.75 397.457 C 118.12 396.642 118.926 395.832 119.30799999999999 394.214 C 112.952 391.912 106.047 391.101 97.148 391.222 C 89.173 391.47299999999996 74.791 394.457 67.08 399.013 L 69.437 396.08599999999996 C 74.791 392.9 88.79599999999999 388.73299999999995 99.323 388.54299999999995 C 106.726 388.36099999999993 110.524 388.79099999999994 119.36699999999999 391.15799999999996 C 118.553 389.674 116.75099999999999 388.91999999999996 114.073 387.67599999999993 C 105.54899999999999 383.8739999999999 89.672 383.49699999999996 76.66399999999999 389.28899999999993 C 78.27699999999999 388.1699999999999 79.89699999999999 387.1689999999999 82.01899999999999 386.2489999999999 C 86.306 384.2509999999999 93.34599999999999 382.3169999999999 102.11999999999999 382.5039999999999 C 109.16099999999999 382.6289999999999 117.50299999999999 385.0579999999999 122.60399999999998 390.1039999999999 C 123.47099999999999 391.1579999999999 123.97399999999999 392.21599999999995 124.15999999999998 393.03099999999995 C 128.20799999999997 395.08599999999996 130.569 397.01499999999993 131.87599999999998 399.25699999999995 C 132.44099999999997 400.441 132.628 401.68499999999995 132.37499999999997 403.11599999999993 C 134.05499999999998 404.1089999999999 134.86999999999998 404.98499999999996 135.74599999999998 406.11599999999993 C 136.29699999999997 407.04799999999994 136.73299999999998 408.09799999999996 136.86299999999997 409.0469999999999 C 137.04499999999996 410.2829999999999 137.16899999999998 411.7179999999999 135.86199999999997 413.4009999999999 C 137.23199999999997 414.0899999999999 138.34899999999996 416.0109999999999 138.48299999999998 416.82999999999987 C 139.164 419.8699999999999 137.17 422.8609999999999 134.62199999999999 425.17199999999985 C 131.629 427.78199999999987 125.02999999999999 430.89999999999986 119.67499999999998 432.27399999999983 C 109.09899999999999 434.94599999999986 99.69399999999999 436.0729999999998 92.23099999999998 437.4429999999998 C 95.58899999999998 438.24999999999983 100.13299999999998 439.3149999999998 107.54299999999998 439.3149999999998 C 123.40999999999998 439.3149999999998 137.41799999999998 431.8329999999998 137.41799999999998 431.8329999999998 C 137.41799999999998 431.8329999999998 137.11199999999997 432.7769999999998 136.79599999999996 433.6489999999998 C 126.71099999999996 439.7489999999998 110.71799999999996 442.2979999999998 103.86399999999996 441.9869999999998 C 96.95299999999996 441.6709999999998 91.10599999999997 440.6169999999998 85.37799999999996 438.8699999999998 C 83.63299999999995 439.3719999999998 81.88999999999996 439.9349999999998 80.21399999999996 440.6169999999998 C 88.93099999999995 444.6009999999998 95.52599999999995 445.4759999999998 102.93599999999995 446.0319999999998 C 110.52599999999995 446.5989999999998 123.10799999999995 444.7839999999998 133.68299999999994 440.9319999999998 C 133.18499999999995 441.4349999999998 132.93699999999993 442.1769999999998 132.44299999999993 442.6149999999998 C 127.02199999999992 445.4759999999998 115.57499999999993 448.3429999999998 109.78399999999993 448.5899999999998 C 104.05099999999993 448.8409999999998 97.08299999999994 448.5899999999998 90.97999999999993 447.4669999999998 C 85.75099999999993 446.41299999999984 81.44999999999993 444.7839999999998 76.97099999999993 442.8019999999998 C 76.16699999999993 443.4139999999998 75.79399999999993 444.1719999999998 75.60099999999993 445.0429999999998 C 93.10199999999993 454.1959999999998 109.40499999999993 454.3819999999998 128.02599999999993 448.5899999999998 L 126.33599999999993 450.2109999999998 C 105.85599999999992 458.55799999999977 89.85899999999992 455.31499999999977 77.46599999999992 449.3399999999998 C 77.03399999999992 449.1499999999998 76.53599999999992 448.95899999999983 76.16699999999992 448.7119999999998 C 77.35099999999991 450.7099999999998 86.80499999999992 457.6209999999998 97.38899999999992 458.4919999999998 C 104.67899999999993 459.1159999999998 113.57799999999992 457.86799999999977 118.86999999999992 455.7569999999998 L 115.76099999999992 457.3699999999998 C 113.20299999999992 458.61799999999977 106.42199999999993 461.4879999999998 96.95299999999992 460.8629999999998 C 84.31899999999992 459.9879999999998 77.21699999999991 454.3819999999998 74.04499999999992 451.45999999999975 C 72.54699999999991 450.08099999999973 71.86999999999992 448.52899999999977 71.42999999999992 446.59999999999974 C 68.56599999999992 445.10399999999976 66.76099999999992 443.5429999999997 65.27099999999992 441.17599999999976 C 64.39899999999992 439.87099999999975 64.58199999999992 438.31899999999973 64.76899999999992 437.00099999999975 L 65.15199999999992 435.89099999999974 C 63.77799999999991 434.88599999999974 62.344999999999914 433.82799999999975 61.785999999999916 432.77799999999974 C 60.535999999999916 430.53299999999973 61.29099999999992 428.59499999999974 62.158999999999914 427.1029999999997 C 61.40699999999991 426.23199999999974 60.721999999999916 425.35999999999973 60.419999999999916 424.48899999999975 C 60.04699999999992 423.49199999999973 59.98399999999992 422.48599999999976 60.099999999999916 421.37199999999973 C 60.34899999999992 419.5069999999997 61.349999999999916 417.7649999999997 62.657999999999916 416.2649999999997 C 65.39199999999991 413.0909999999997 69.75999999999992 410.59799999999973 77.15899999999992 408.1699999999997 C 84.44899999999993 405.73799999999966 87.37599999999992 405.36099999999965 92.85399999999993 404.1119999999997 C 99.26299999999993 402.62499999999966 106.92099999999994 402.12999999999965 113.33399999999993 399.8879999999997 C 95.45999999999994 396.7749999999997 76.91599999999994 399.6369999999997 61.786999999999935 410.0299999999997 L 62.774 407.1 z" stroke-linecap="round" />
</g>
		<g transform="matrix(1 0 0 1 -78.31 -0.03)"  >
<path style="stroke: none; stroke-width: 1; stroke-dasharray: none; stroke-linecap: butt; stroke-dashoffset: 0; stroke-linejoin: miter; stroke-miterlimit: 4; fill: rgb(30,50,98); fill-rule: evenodd; opacity: 1;" vector-effect="non-scaling-stroke"  transform=" translate(-219.1, -421.62)" d="M 219.095 412.402 L 221.15 426.602 L 217.036 426.602 L 219.095 412.402 z M 203.098 444.85 L 213.99 444.85 L 215.36 436.812 L 222.893 436.812 L 224.201 444.85 L 235.093 444.85 L 225.87699999999998 398.386 L 212.30899999999997 398.386 L 203.098 444.85 z" stroke-linecap="round" />
</g>
		<g transform="matrix(1 0 0 1 -47 0.02)"  >
<path style="stroke: none; stroke-width: 1; stroke-dasharray: none; stroke-linecap: butt; stroke-dashoffset: 0; stroke-linejoin: miter; stroke-miterlimit: 4; fill: rgb(30,50,98); fill-rule: evenodd; opacity: 1;" vector-effect="non-scaling-stroke"  transform=" translate(-250.41, -421.68)" d="M 245.426 416.391 C 247.165 416.391 250.345 415.26800000000003 250.345 411.843 C 250.345 407.798 246.673 407.54200000000003 245.609 407.54200000000003 C 244.369 407.54200000000003 242.00400000000002 407.732 239.699 408.855 L 239.57500000000002 398.75800000000004 C 243.247 397.82500000000005 245.86200000000002 397.574 248.971 397.574 C 257.818 397.574 261.73900000000003 403.743 261.73900000000003 409.779 C 261.73900000000003 415.64 258.37300000000005 419.183 255.07700000000003 420.557 L 255.07700000000003 420.99100000000004 C 258.25300000000004 421.99600000000004 262.482 425.04100000000005 262.482 432.14200000000005 C 262.482 440.92900000000003 256.384 445.78200000000004 248.53900000000002 445.78200000000004 C 244.36800000000002 445.725 241.62800000000001 445.16600000000005 238.328 443.35800000000006 L 238.51500000000001 433.69900000000007 C 241.567 435.01200000000006 243.62 435.13400000000007 245.67600000000002 435.13400000000007 C 249.16400000000002 435.13400000000007 250.52800000000002 432.5760000000001 250.52800000000002 430.7150000000001 C 250.52800000000002 428.0970000000001 248.85200000000003 426.3540000000001 245.17700000000002 426.3540000000001 L 240.82000000000002 426.3540000000001 L 240.82000000000002 416.3910000000001 L 245.426 416.3910000000001 z" stroke-linecap="round" />
</g>
		<g transform="matrix(1 0 0 1 -15.19 -0.03)"  >
<polygon style="stroke: none; stroke-width: 1; stroke-dasharray: none; stroke-linecap: butt; stroke-dashoffset: 0; stroke-linejoin: miter; stroke-miterlimit: 4; fill: rgb(30,50,98); fill-rule: evenodd; opacity: 1;" vector-effect="non-scaling-stroke"  points="-14.69,-23.23 14.69,-23.23 14.69,23.23 3.92,23.23 3.92,-12.02 -3.92,-12.02 -3.92,23.23 -14.69,23.23 " />
</g>
		<g transform="matrix(1 0 0 1 19.82 -0.03)"  >
<path style="stroke: none; stroke-width: 1; stroke-dasharray: none; stroke-linecap: butt; stroke-dashoffset: 0; stroke-linejoin: miter; stroke-miterlimit: 4; fill: rgb(30,50,98); fill-rule: evenodd; opacity: 1;" vector-effect="non-scaling-stroke"  transform=" translate(-317.24, -421.62)" d="M 313.84 408.6 L 316.39399999999995 408.6 C 318.82599999999996 408.6 320.38199999999995 410.096 320.38199999999995 413.959 C 320.38199999999995 418.94100000000003 317.76399999999995 419.31 316.39399999999995 419.31 L 313.84 419.31 L 313.84 408.6 z M 303.071 444.85 L 313.84000000000003 444.85 L 313.84000000000003 429.53200000000004 L 317.45500000000004 429.53200000000004 C 328.09600000000006 429.53200000000004 331.39900000000006 419.93800000000005 331.39900000000006 413.82500000000005 C 331.39900000000006 407.85 327.59600000000006 398.386 317.45500000000004 398.386 L 303.071 398.386 L 303.071 444.85 z" stroke-linecap="round" />
</g>
		<g transform="matrix(1 0 0 1 53.91 -0.09)"  >
<path style="stroke: none; stroke-width: 1; stroke-dasharray: none; stroke-linecap: butt; stroke-dashoffset: 0; stroke-linejoin: miter; stroke-miterlimit: 4; fill: rgb(30,50,98); fill-rule: evenodd; opacity: 1;" vector-effect="non-scaling-stroke"  transform=" translate(-351.32, -421.56)" d="M 351.317 434.137 C 347.515 434.137 345.593 429.719 345.593 421.559 C 345.593 413.39500000000004 347.51500000000004 408.97700000000003 351.317 408.97700000000003 C 355.12 408.97700000000003 357.041 413.39500000000004 357.041 421.559 C 357.041 429.719 355.12 434.137 351.317 434.137 M 351.317 445.413 C 364.082 445.413 368.37 433.451 368.37 421.559 C 368.37 409.66700000000003 364.082 397.70500000000004 351.317 397.70500000000004 C 338.557 397.70500000000004 334.264 409.66700000000003 334.264 421.559 C 334.264 433.451 338.558 445.413 351.317 445.413" stroke-linecap="round" />
</g>
		<g transform="matrix(1 0 0 1 131.57 -0.03)"  >
<path style="stroke: none; stroke-width: 1; stroke-dasharray: none; stroke-linecap: butt; stroke-dashoffset: 0; stroke-linejoin: miter; stroke-miterlimit: 4; fill: rgb(30,50,98); fill-rule: evenodd; opacity: 1;" vector-effect="non-scaling-stroke"  transform=" translate(-428.98, -421.62)" d="M 425.836 435.507 L 425.836 424.984 L 427.39300000000003 424.984 C 428.69800000000004 424.984 432.06300000000005 425.046 432.06300000000005 429.84 C 432.06300000000005 434.70399999999995 428.69800000000004 435.50699999999995 427.39300000000003 435.50699999999995 L 425.836 435.50699999999995 z M 415.313 444.85 L 428.138 444.85 C 430.935 444.85 442.58 443.66200000000003 442.64099999999996 429.584 C 442.64099999999996 417.765 433.61799999999994 415.706 427.765 415.706 L 425.835 415.706 L 425.835 409.53700000000003 L 440.091 409.53700000000003 L 440.091 398.39000000000004 L 415.313 398.39000000000004 L 415.313 444.85 z" stroke-linecap="round" />
</g>
		<g transform="matrix(1 0 0 1 198.24 -0.03)"  >
<polygon style="stroke: none; stroke-width: 1; stroke-dasharray: none; stroke-linecap: butt; stroke-dashoffset: 0; stroke-linejoin: miter; stroke-miterlimit: 4; fill: rgb(30,50,98); fill-rule: evenodd; opacity: 1;" vector-effect="non-scaling-stroke"  points="-14.28,-23.23 -3.77,-23.23 -3.77,-6.48 3.77,-6.48 3.77,-23.23 14.28,-23.23 14.28,23.23 3.77,23.23 3.77,4.61 -3.77,4.61 -3.77,23.23 -14.28,23.23 " />
</g>
		<g transform="matrix(1 0 0 1 235.37 -0.03)"  >
<polygon style="stroke: none; stroke-width: 1; stroke-dasharray: none; stroke-linecap: butt; stroke-dashoffset: 0; stroke-linejoin: miter; stroke-miterlimit: 4; fill: rgb(30,50,98); fill-rule: evenodd; opacity: 1;" vector-effect="non-scaling-stroke"  points="-15.75,-23.23 -5.16,-23.23 -5.23,-6.54 -2.93,-6.54 3.11,-23.23 14.57,-23.23 6.35,-1.18 15.75,23.23 3.36,23.23 -2.74,4.55 -5.23,4.55 -5.16,23.23 -15.75,23.23 " />
</g>
		<g transform="matrix(1 0 0 1 -104.12 -0.03)"  >
<polygon style="stroke: none; stroke-width: 1; stroke-dasharray: none; stroke-linecap: butt; stroke-dashoffset: 0; stroke-linejoin: miter; stroke-miterlimit: 4; fill: rgb(30,50,98); fill-rule: evenodd; opacity: 1;" vector-effect="non-scaling-stroke"  points="-11.04,-23.23 11.04,-23.23 11.04,-11.65 -0.09,-11.65 -0.09,23.23 -11.04,23.23 " />
</g>
		<g transform="matrix(1 0 0 1 93.38 -0.03)"  >
<polygon style="stroke: none; stroke-width: 1; stroke-dasharray: none; stroke-linecap: butt; stroke-dashoffset: 0; stroke-linejoin: miter; stroke-miterlimit: 4; fill: rgb(30,50,98); fill-rule: evenodd; opacity: 1;" vector-effect="non-scaling-stroke"  points="-17.24,-23.23 -8.09,-23.23 -0.01,-12.27 8.15,-23.23 17.24,-23.23 17.24,23.23 6.46,23.23 6.46,-5.11 -0.01,2.99 -6.48,-5.11 -6.48,23.23 -17.24,23.23 " />
</g>
		<g transform="matrix(1 0 0 1 163.32 0.03)"  >
<path style="stroke: none; stroke-width: 1; stroke-dasharray: none; stroke-linecap: butt; stroke-dashoffset: 0; stroke-linejoin: miter; stroke-miterlimit: 4; fill: rgb(30,50,98); fill-rule: evenodd; opacity: 1;" vector-effect="non-scaling-stroke"  transform=" translate(-460.73, -421.68)" d="M 460.76 412.523 L 462.75 426.66200000000003 L 458.701 426.66200000000003 L 460.76 412.523 z M 444.7 444.91 L 455.657 444.91 L 456.967 436.877 L 464.493 436.877 L 465.803 444.91 L 476.759 444.91 L 467.546 398.454 L 453.971 398.454 L 444.7 444.91 z" stroke-linecap="round" />
</g>
</g>
</g>
</svg>