<?xml version="1.0" encoding="utf-8"?>
<!-- Generator: Adobe Illustrator 21.1.0, SVG Export Plug-In . SVG Version: 6.00 Build 0)  -->
<svg version="1.1" id="Layer_1" xmlns="http://www.w3.org/2000/svg" xmlns:xlink="http://www.w3.org/1999/xlink" x="0px" y="0px"
	 viewBox="0 0 95.1 33" style="enable-background:new 0 0 95.1 33;" xml:space="preserve">
<style type="text/css">
	.st0{fill:#009DE0;}
	.st1{fill:#243571;}
</style>
<g>
	<path class="st0" d="M23.7,13.2H1.5L0,17.6h22.2L23.7,13.2z M26.1,6.6H4L2.4,11h22.2L26.1,6.6z M28.6,0H6.4L4.8,4.4h22.2L28.6,0z"
		/>
	<path class="st1" d="M39.1,33L30.8,6.6h5.8l3.2,11.5c0.9,3.4,1.4,5.2,2,8.1c0.6-2.7,0.9-4,2-7.9l3.2-11.7h5.6L44.3,33H39.1z
		 M61.4,33V11h-7.6V6.6H75L73.5,11h-6.8v22H61.4z M81.9,17.2h3c0.9,0,1.4,0,1.8-0.1c1.2-0.4,2-1.5,2-3c0-1.8-0.8-2.6-2-2.9
		c-0.5-0.1-1-0.2-2-0.2h-2.8V17.2z M82,21.7v6.9h3.7c1.1,0,2.1-0.1,2.8-0.8c0.7-0.7,1.1-1.6,1.1-2.7c0-0.9-0.2-1.7-0.7-2.3
		c-0.8-1-1.7-1.2-3.4-1.2H82z M90.4,19L90.4,19c1,0.5,2,1.1,2.5,1.5c1.6,1.3,2.2,3,2.2,5.2c0,3.6-1.9,6.2-5.1,7
		c-1,0.3-2,0.4-3.8,0.4h-9.6V6.6h8.5c1.7,0,2.9,0.1,4,0.4c3.1,0.8,5.1,2.9,5.1,6.3c0,1.8-0.6,3.3-1.7,4.3C92,18,91.4,18.5,90.4,19z"
		/>
</g>
</svg>
