<?xml version="1.0" encoding="utf-8"?>
<!-- Generator: Adobe Illustrator 20.1.0, SVG Export Plug-In . SVG Version: 6.00 Build 0)  -->
<svg version="1.1" id="Layer_1" xmlns="http://www.w3.org/2000/svg" xmlns:xlink="http://www.w3.org/1999/xlink" x="0px" y="0px"
	 viewBox="0 0 233.2 25.8" style="enable-background:new 0 0 233.2 25.8;" xml:space="preserve">
<style type="text/css">
	.st0{fill:#768C98;}
	.st1{fill:#F6911E;}
</style>
<path class="st0" d="M229.9,10.9h-9.4V5.8h9.4V10.9z M221.6,3.1c-0.5,0-0.9,0.1-1.4,0.2c-0.4,0.1-0.8,0.4-1.2,0.6
	c-0.3,0.3-0.6,0.6-0.8,1s-0.3,0.8-0.3,1.3v4c0,0.5,0.1,0.9,0.3,1.3c0.2,0.4,0.4,0.8,0.7,1.1s0.7,0.5,1.1,0.7
	c0.4,0.2,0.9,0.3,1.3,0.3h8.2c0.4,0,0.9-0.1,1.3-0.3c0.4-0.2,0.8-0.4,1.1-0.7s0.6-0.6,0.7-1c0.2-0.4,0.3-0.8,0.3-1.2V6.5
	c0-0.4-0.1-0.9-0.3-1.3s-0.4-0.8-0.7-1.1s-0.7-0.6-1.1-0.7c-0.4-0.2-0.8-0.3-1.3-0.3H221.6z M204.9,3.1h-3.1l4.3,8.2
	c0.2,0.3,0.3,0.7,0.6,1c0.2,0.3,0.4,0.5,0.7,0.8c0.2,0.2,0.5,0.4,0.8,0.5c0.6,0.2,1.3,0.3,1.9,0c0.3-0.1,0.5-0.2,0.7-0.4
	s0.4-0.4,0.6-0.7c0.2-0.3,0.4-0.6,0.5-0.8l4.5-8.6h-3l-4.3,7.9L204.9,3.1z M189.2,3c-0.5,0-1,0.1-1.5,0.2c-0.4,0.1-0.8,0.4-1.2,0.7
	c-0.3,0.3-0.6,0.7-0.8,1.1s-0.3,0.9-0.3,1.4v3.8c0,0.5,0.1,1,0.3,1.4s0.5,0.8,0.8,1.1c0.4,0.3,0.8,0.5,1.2,0.7s0.9,0.3,1.4,0.3h11.1
	v-2.8H188V9.7h12.2V7H188V5.8h12.2V3H189.2z M175.5,10.5v3.1h2.7v-3.1l5.9-7.5h-3.3l-3.9,4.8L173,3h-3.4L175.5,10.5z M153.1,3.1v2.7
	h6.2v7.9h2.7V5.8h6.2V3.1H153.1z M140.5,3c-0.5,0-1,0.1-1.5,0.2c-0.4,0.1-0.8,0.4-1.2,0.7c-0.3,0.3-0.6,0.7-0.8,1.1
	c-0.2,0.5-0.3,0.9-0.3,1.4v3.8c0,0.5,0.1,1,0.3,1.4s0.5,0.8,0.8,1.1s0.8,0.5,1.2,0.7s0.9,0.3,1.4,0.3h11.1v-2.8h-12.2V9.7h12.2V7
	h-12.2V5.8h12.2V3H140.5z M122.2,13.7V6l2.5,5.4c0.1,0.3,0.3,0.6,0.5,0.9c0.2,0.3,0.4,0.6,0.6,0.8s0.5,0.4,0.8,0.6
	c0.3,0.1,0.6,0.2,0.9,0.2s0.7-0.1,1-0.2c0.3-0.1,0.5-0.3,0.7-0.5s0.4-0.5,0.5-0.8c0.2-0.3,0.3-0.6,0.5-1l2.5-5.5v7.8h2.6V6
	c0-0.4-0.1-0.7-0.2-1.1c-0.1-0.3-0.3-0.7-0.5-0.9c-0.2-0.3-0.5-0.5-0.8-0.7s-0.7-0.2-1.1-0.2c-0.6,0-1.1,0.2-1.6,0.5
	c-0.5,0.4-0.8,0.9-1,1.5l-2.6,6.2l-2.4-5.9c-0.1-0.3-0.3-0.6-0.5-0.9S124.2,4,124,3.8s-0.5-0.4-0.8-0.5s-0.6-0.2-1-0.2
	s-0.7,0.1-1,0.2c-0.6,0.3-1.1,0.8-1.4,1.4c-0.1,0.3-0.2,0.7-0.2,1v7.9L122.2,13.7z M107.1,3c-0.5,0-1,0.1-1.5,0.2
	c-0.4,0.1-0.8,0.4-1.2,0.7c-0.3,0.3-0.6,0.7-0.8,1.1c-0.2,0.4-0.3,0.9-0.3,1.4v3.8c0,0.5,0.1,1,0.3,1.4c0.2,0.4,0.5,0.8,0.8,1.1
	c0.4,0.3,0.8,0.5,1.2,0.7c0.4,0.2,0.9,0.3,1.4,0.3h11.1v-2.8h-12.2V9.7h12.2V7h-12.2V5.8h12.2V3H107.1z M89.8,5.8h9.4V7h-9.4V5.8z
	 M87.1,3.1v10.6h2.8v-4h9.4v4h2.7V10c0-0.3-0.1-0.6-0.2-0.9c-0.1-0.3-0.3-0.6-0.5-0.9c0.2-0.3,0.3-0.6,0.4-0.9
	c0.2-0.7,0.2-1.5-0.1-2.2c-0.3-0.8-1-1.4-1.7-1.8C99.5,3.1,99.1,3,98.7,3L87.1,3.1z M74.5,3c-0.5,0-1,0.1-1.5,0.2
	c-0.4,0.1-0.8,0.4-1.2,0.7C71.5,4.2,71.2,4.6,71,5c-0.2,0.5-0.3,0.9-0.3,1.4v3.8c0,0.5,0.1,1,0.3,1.4c0.2,0.4,0.5,0.8,0.8,1.1
	s0.8,0.5,1.2,0.7c0.4,0.2,0.9,0.3,1.4,0.3h11.1v-2.8h-12V9.7h12.2V7H73.5V5.8h12.2V3H74.5z M56.9,3.1h-2.7v10.6h2.7v-4h9.8v4h2.7
	V3.1h-2.7V7h-9.8C56.9,7,56.9,3.1,56.9,3.1z M49.2,7h-9.8V5.7H52V3.1H40.5c-0.5,0-1,0.1-1.4,0.2c-0.5,0.1-0.9,0.4-1.3,0.6
	c-0.4,0.3-0.7,0.6-0.9,1s-0.4,0.9-0.4,1.4s0.1,0.9,0.3,1.3c0.2,0.4,0.5,0.8,0.8,1c0.3,0.3,0.7,0.5,1.2,0.7c0.4,0.2,0.9,0.2,1.4,0.2
	h9.9V11H37.2v2.7h12c0.5,0,0.9-0.1,1.3-0.2c0.4-0.2,0.8-0.4,1.1-0.7s0.6-0.6,0.8-1s0.3-0.9,0.3-1.3c0-0.5-0.1-0.9-0.3-1.3
	c-0.2-0.4-0.4-0.8-0.8-1.1c-0.3-0.3-0.7-0.6-1.1-0.7C50.2,7.1,49.7,7,49.2,7"/>
<path class="st0" d="M224.7,17.4v1.3h3.1v4h1.3v-4h3.1v-1.3H224.7z M215.5,18.7h4.7v0.6h-4.7V18.7z M214.1,17.4v5.3h1.4v-2h4.7v2
	h1.4v-1.8c0-0.2,0-0.3-0.1-0.5s-0.1-0.3-0.3-0.4c0.1-0.1,0.2-0.3,0.2-0.4c0.1-0.2,0.1-0.3,0.1-0.5s0-0.4-0.1-0.6s-0.2-0.4-0.4-0.5
	c-0.1-0.2-0.3-0.3-0.5-0.4s-0.4-0.1-0.6-0.1L214.1,17.4z M209.6,21.3h-4.7v-2.6h4.7V21.3z M205.4,17.4c-0.2,0-0.5,0-0.7,0.1
	s-0.4,0.2-0.6,0.3c-0.2,0.1-0.3,0.3-0.4,0.5c-0.1,0.2-0.2,0.4-0.2,0.6v2c0,0.2,0,0.5,0.1,0.7s0.2,0.4,0.4,0.5
	c0.2,0.2,0.3,0.3,0.5,0.4s0.4,0.1,0.7,0.1h4.1c0.2,0,0.4,0,0.6-0.1c0.2-0.1,0.4-0.2,0.5-0.4c0.2-0.1,0.3-0.3,0.4-0.5
	c0.1-0.2,0.1-0.4,0.1-0.6v-2c0-0.2,0-0.4-0.1-0.6s-0.2-0.4-0.4-0.5c-0.2-0.2-0.3-0.3-0.5-0.4s-0.4-0.1-0.6-0.1H205.4z M194,18.7h4.9
	v0.7H194V18.7z M198.5,17.4h-5.9v5.3h1.4v-2h4.6c0.2,0,0.5,0,0.7-0.1s0.4-0.2,0.6-0.4c0.2-0.2,0.3-0.3,0.4-0.5
	c0.1-0.2,0.1-0.4,0.1-0.7c0-0.2-0.1-0.5-0.2-0.7c-0.1-0.2-0.2-0.4-0.4-0.5s-0.4-0.3-0.6-0.3C199,17.4,198.7,17.4,198.5,17.4
	 M183.4,18.7h4.7v0.6h-4.7V18.7z M182,17.4v5.3h1.4v-2h4.7v2h1.4v-1.8c0-0.2,0-0.3-0.1-0.5s-0.1-0.3-0.3-0.4
	c0.1-0.1,0.2-0.3,0.2-0.4c0.1-0.2,0.1-0.3,0.1-0.5s0-0.4-0.1-0.6s-0.2-0.4-0.4-0.5c-0.1-0.2-0.3-0.3-0.5-0.4s-0.4-0.1-0.6-0.1
	L182,17.4z M178.9,17.4h-1.5v5.4h1.5V17.4z M170,19.9l0.6-1.1l0.6,1.1H170z M168.6,22.7l0.7-1.4h2.6l0.8,1.4h1.5l-2.1-4
	c-0.1-0.2-0.2-0.4-0.3-0.6s-0.2-0.3-0.3-0.4s-0.2-0.2-0.4-0.3c-0.2-0.1-0.3-0.1-0.5-0.1s-0.3,0-0.5,0.1c-0.1,0.1-0.3,0.1-0.4,0.3
	c-0.1,0.1-0.2,0.3-0.3,0.4c-0.1,0.2-0.2,0.3-0.3,0.5l-2.1,4L168.6,22.7z M159.3,21.3h-6v-3.9h-1.4v3.7c0,0.2,0,0.4,0.1,0.6
	s0.2,0.4,0.4,0.5c0.2,0.2,0.3,0.3,0.5,0.4s0.4,0.1,0.6,0.1h5.8L159.3,21.3z M144.5,19.9l0.6-1.1l0.6,1.1H144.5z M143.1,22.7l0.7-1.4
	h2.6l0.8,1.4h1.5l-2.1-4c-0.1-0.2-0.2-0.4-0.3-0.6s-0.2-0.3-0.3-0.4c-0.2-0.2-0.5-0.4-0.9-0.4c-0.2,0-0.4,0-0.5,0.1
	s-0.3,0.1-0.4,0.3c-0.1,0.1-0.2,0.3-0.3,0.4c-0.1,0.2-0.2,0.3-0.3,0.5l-2.1,4L143.1,22.7z M131.1,18.6v4.1h1.3v-4l3.6,3.5
	c0.1,0.1,0.2,0.2,0.3,0.2c0.1,0.1,0.2,0.1,0.3,0.2c0.1,0,0.2,0.1,0.3,0.1s0.2,0,0.3,0c0.2,0,0.4,0,0.6-0.1c0.2-0.1,0.3-0.2,0.4-0.3
	c0.1-0.1,0.2-0.3,0.3-0.5s0.1-0.4,0.1-0.6v-3.9h-1.3v4l-3.6-3.6c-0.3-0.3-0.7-0.5-1.1-0.5c-0.2,0-0.3,0-0.5,0.1s-0.3,0.2-0.4,0.3
	c-0.1,0.1-0.2,0.3-0.3,0.4C131.1,18.2,131.1,18.4,131.1,18.6 M126.5,21.3h-4.7v-2.6h4.7V21.3z M122.3,17.4c-0.2,0-0.5,0-0.7,0.1
	s-0.4,0.2-0.6,0.3c-0.2,0.1-0.3,0.3-0.4,0.5s-0.2,0.4-0.2,0.6v2c0,0.2,0,0.5,0.1,0.7s0.2,0.4,0.4,0.5c0.2,0.2,0.3,0.3,0.5,0.4
	s0.4,0.1,0.7,0.1h4.1c0.2,0,0.4,0,0.6-0.1s0.4-0.2,0.5-0.4c0.2-0.1,0.3-0.3,0.4-0.5s0.1-0.4,0.1-0.6v-2c0-0.2,0-0.4-0.1-0.6
	s-0.2-0.4-0.4-0.5c-0.2-0.2-0.3-0.3-0.5-0.4s-0.4-0.1-0.6-0.1H122.3z M117.3,17.4h-1.5v5.4h1.5V17.4z M105.1,17.4v1.3h3.1v4h1.3v-4
	h3.1v-1.3H105.1z M97.8,19.9l0.6-1.1l0.6,1.1H97.8z M96.4,22.7l0.7-1.4h2.6l0.8,1.4h1.5l-2.1-4c-0.1-0.2-0.2-0.4-0.3-0.6
	c-0.1-0.2-0.2-0.3-0.3-0.4c-0.1-0.1-0.2-0.2-0.4-0.3c-0.2-0.1-0.3-0.1-0.5-0.1s-0.3,0-0.5,0.1c-0.1,0.1-0.3,0.1-0.4,0.3
	c-0.1,0.1-0.2,0.3-0.3,0.4c-0.1,0.2-0.2,0.3-0.3,0.5l-2.1,4L96.4,22.7z M84.3,18.6v4.1h1.3v-4l3.6,3.5c0.1,0.1,0.2,0.2,0.3,0.2
	c0.1,0.1,0.2,0.1,0.3,0.2c0.1,0,0.2,0.1,0.3,0.1c0.3,0.1,0.6,0,0.8-0.1c0.2-0.1,0.3-0.2,0.4-0.3c0.1-0.1,0.2-0.3,0.3-0.5
	c0.1-0.2,0.1-0.4,0.1-0.6v-3.9h-1.3v4l-3.6-3.6c-0.3-0.3-0.7-0.5-1.1-0.5c-0.2,0-0.3,0-0.5,0.1s-0.3,0.2-0.4,0.3
	c-0.1,0.1-0.2,0.3-0.3,0.4C84.4,18.2,84.3,18.4,84.3,18.6 M75.1,18.7h4.7v0.6h-4.7V18.7z M73.7,17.4v5.3h1.4v-2h4.7v2h1.4v-1.8
	c0-0.2,0-0.3-0.1-0.5S81,20.1,80.8,20c0.1-0.1,0.2-0.3,0.2-0.4c0.1-0.2,0.1-0.3,0.1-0.5s0-0.4-0.1-0.6s-0.2-0.4-0.4-0.5
	c-0.1-0.2-0.3-0.3-0.5-0.4s-0.4-0.1-0.6-0.1L73.7,17.4z M65,17.4c-0.2,0-0.5,0-0.7,0.1c-0.2,0.1-0.4,0.2-0.6,0.3
	c-0.2,0.1-0.3,0.3-0.4,0.5c-0.1,0.2-0.2,0.5-0.1,0.7v2c0,0.2,0,0.5,0.2,0.7c0.1,0.2,0.2,0.4,0.4,0.5c0.2,0.2,0.4,0.3,0.6,0.4
	s0.5,0.1,0.7,0.1h5.6v-1.4h-6.1v-0.6h6.1v-1.4h-6.1v-0.6h6.1v-1.4L65,17.4z M52.5,17.4v1.3h3.1v4h1.3v-4H60v-1.3H52.5z M41.9,18.6
	v4.1h1.3v-4l3.6,3.5c0.1,0.1,0.2,0.2,0.3,0.2c0.1,0.1,0.2,0.1,0.3,0.2c0.1,0,0.2,0.1,0.3,0.1c0.3,0.1,0.6,0,0.8-0.1s0.3-0.2,0.4-0.3
	c0.1-0.1,0.2-0.3,0.3-0.5s0.1-0.4,0.1-0.6v-3.9H48v4l-3.6-3.5c-0.3-0.3-0.7-0.5-1.1-0.5c-0.2,0-0.3,0-0.5,0.1s-0.3,0.2-0.4,0.3
	c-0.1,0.1-0.2,0.3-0.3,0.4C42,18.2,41.9,18.4,41.9,18.6 M38.8,17.4h-1.5v5.4h1.5V17.4z"/>
<path class="st1" d="M24.4,18.4c-3.1,6.1-10.5,8.6-16.6,5.5S-0.8,13.4,2.2,7.3C3.9,4,6.9,1.6,10.4,0.8l-6.2,17
	C8.7,21.3,17.1,21.3,24.4,18.4z"/>
<path class="st1" d="M23.4,5.6c1.5,2.1,2.3,4.7,2.3,7.3c0,0.3,0,0.6,0,0.9c-1.9,0.7-4,1-6,0.8L23.4,5.6z"/>
<path class="st1" d="M19.2,2c0.5,0.3,1,0.6,1.5,0.9l-5.4,12.7c2.3,0.7,7.1,0,10.2-1c0,0.3,0,0.5-0.1,0.8c-4.5,1.4-9.4,2.2-12.1,1.1
	L19.2,2z"/>
<path class="st1" d="M14.3,0.5c0.6,0,1.1,0.1,1.7,0.3l-6.2,16c2.3,2.1,11.6,1.2,15.4-0.3c-0.1,0.3-0.2,0.7-0.3,1
	c-6.6,2-13.4,2.5-17.2,0L14.3,0.5z"/>
</svg>
