<?xml version="1.0" standalone="no"?>
<!DOCTYPE svg PUBLIC "-//W3C//DTD SVG 20010904//EN"
 "http://www.w3.org/TR/2001/REC-SVG-20010904/DTD/svg10.dtd">
<svg version="1.0" xmlns="http://www.w3.org/2000/svg"
 width="700.000000pt" height="700.000000pt" viewBox="0 0 700.000000 700.000000"
 preserveAspectRatio="xMidYMid meet">
<metadata>
Created by potrace 1.14, written by Peter Selinger 2001-2017
</metadata>
<g transform="translate(0.000000,700.000000) scale(0.100000,-0.100000)"
fill="#000000" stroke="none">
<path d="M4266 6253 c-3 -32 -8 -71 -10 -88 -2 -16 -7 -59 -11 -95 -3 -36 -8
-81 -10 -100 -2 -19 -7 -68 -11 -108 -42 -472 -34 -1066 21 -1477 3 -16 7 -51
10 -77 5 -44 8 -66 20 -150 9 -62 46 -273 62 -348 8 -41 17 -84 19 -95 46
-243 224 -827 324 -1060 4 -11 16 -40 25 -65 17 -46 27 -71 64 -152 11 -26 21
-50 21 -52 0 -9 94 -206 180 -377 97 -192 243 -452 352 -626 l71 -112 61 52
c120 102 303 291 402 416 11 13 24 28 29 35 6 6 22 27 35 46 13 19 27 37 30
40 8 6 114 163 156 230 137 220 264 514 328 762 35 135 39 153 56 268 6 36 13
81 16 100 3 19 7 127 8 240 4 325 -40 596 -147 915 -98 295 -232 552 -414 796
-93 125 -124 160 -268 304 -301 303 -654 533 -1119 730 -71 30 -278 105 -290
105 -2 0 -6 -26 -10 -57z"/>
<path d="M3167 6294 c-1 -1 -53 -5 -116 -8 -63 -4 -117 -8 -120 -10 -3 -2 -32
-7 -64 -10 -170 -20 -456 -98 -670 -182 -145 -57 -403 -183 -470 -229 -21 -14
-40 -25 -44 -25 -12 0 -224 -147 -322 -224 -109 -85 -299 -267 -366 -351 -22
-27 -48 -59 -58 -70 -68 -73 -197 -275 -281 -439 -86 -167 -189 -438 -210
-550 -2 -12 -11 -48 -19 -81 -9 -33 -21 -96 -27 -140 -6 -44 -13 -93 -16 -110
-4 -28 1 -33 91 -88 328 -201 653 -339 960 -407 240 -53 456 -68 680 -47 72 7
87 12 147 52 133 88 294 238 409 380 61 75 179 242 179 252 0 4 6 14 14 22 24
27 143 261 191 376 25 61 50 119 55 130 28 64 133 393 145 455 2 8 10 42 19
75 20 77 65 284 72 333 3 20 7 44 10 53 2 9 7 34 9 55 3 22 9 62 15 89 5 28
12 72 15 100 3 27 7 57 9 65 3 8 7 40 11 70 3 30 7 71 10 90 5 44 13 127 20
205 3 33 7 84 10 113 l6 52 -33 1 c-84 3 -259 5 -261 3z"/>
<path d="M2828 2515 c-2 -2 -36 -6 -77 -9 -40 -4 -76 -8 -80 -10 -3 -2 -24 -7
-46 -10 -134 -21 -298 -82 -613 -227 -35 -16 -69 -29 -76 -29 -6 0 -16 -4 -21
-9 -6 -5 -91 -39 -190 -76 -99 -37 -189 -71 -200 -76 -26 -10 -347 -114 -400
-129 -22 -6 -62 -18 -90 -26 -27 -8 -59 -17 -70 -19 -11 -3 -51 -14 -90 -25
-38 -12 -77 -23 -86 -25 -18 -4 -196 -47 -297 -71 -35 -9 -70 -17 -79 -18 -29
-4 -25 -22 20 -108 69 -129 226 -374 256 -398 4 -3 26 -30 49 -60 101 -129
299 -314 467 -437 313 -228 780 -418 1210 -492 33 -6 74 -13 90 -16 49 -8 184
-24 265 -30 83 -7 402 -8 465 -1 141 14 176 18 230 27 83 13 112 18 175 31 30
6 60 12 65 14 122 24 379 108 549 178 278 116 440 216 653 404 l72 64 -36 56
c-20 32 -41 67 -47 79 -6 13 -14 23 -18 23 -5 0 -8 4 -8 10 0 5 -30 53 -67
107 -541 795 -1081 1211 -1683 1299 -45 6 -287 14 -292 9z"/>
</g>
</svg>
