<?xml version="1.0" ?><!DOCTYPE svg  PUBLIC '-//W3C//DTD SVG 1.1//EN'  'http://www.w3.org/Graphics/SVG/1.1/DTD/svg11.dtd'><svg height="96" version="1.1" viewBox="0 0 96 96" width="96" xmlns="http://www.w3.org/2000/svg" xmlns:xlink="http://www.w3.org/1999/xlink"><path d="M76 39.988h-56c-4.86 0-8 3.14-8 8 0 4.856 3.14 8 8 8h56c4.86 0 8-3.14 8-8s-3.14-8-8-8z" fill="#000000"/><path d="M20.156 35.156c0.968 0 1.924-0.168 2.836-0.496l52.244-18.804c2.072-0.752 3.68-2.228 4.532-4.164 0.812-1.836 0.836-3.868 0.072-5.72-1.564-3.784-6.252-5.772-10.28-4.328l-52.244 18.812c-2.072 0.744-3.68 2.22-4.54 4.156-0.816 1.836-0.84 3.868-0.072 5.724 1.216 2.924 4.14 4.82 7.452 4.82z" fill="#000000"/><path d="M75.236 80.124l-52.244-18.796c-4.040-1.468-8.72 0.532-10.288 4.312-0.768 1.852-0.744 3.884 0.068 5.72 0.856 1.936 2.468 3.42 4.54 4.164l52.244 18.804c0.916 0.328 1.868 0.5 2.836 0.5 3.312 0 6.236-1.892 7.444-4.82 0.764-1.852 0.744-3.884-0.072-5.728-0.848-1.928-2.464-3.404-4.528-4.156z" fill="#000000"/></svg>